<svg width="140" height="140" viewBox="0 0 140 140" fill="none" xmlns="http://www.w3.org/2000/svg">
<rect width="140" height="140" fill="#FFF200"/>
<path d="M28.7108 80.0936C24.0258 80.0936 19.9031 82.2456 17.1858 85.614V80.8421H14V128H17.1858V103.86C19.9031 107.228 24.0258 109.38 28.7108 109.38C36.8627 109.38 43.4217 102.83 43.4217 94.6901C43.4217 86.6433 36.8627 80.0936 28.7108 80.0936ZM28.7108 106.292C22.3393 106.292 17.1858 101.146 17.1858 94.7836C17.1858 88.4211 22.3393 83.2749 28.7108 83.2749C35.0824 83.2749 40.2359 88.4211 40.2359 94.7836C40.2359 101.146 35.0824 106.292 28.7108 106.292ZM106.575 109.474H109.761V64H106.575V109.474ZM59.538 80.0936C51.3861 80.0936 44.8271 86.6433 44.8271 94.7836C44.8271 102.924 51.3861 109.474 59.538 109.474C65.9095 109.474 71.2504 105.45 73.3118 99.8363H69.8449C67.9709 103.673 64.0355 106.292 59.538 106.292C53.7286 106.292 48.9499 101.988 48.1066 96.3743H74.2488V94.7836C74.2488 86.6433 67.5961 80.0936 59.538 80.0936ZM48.1066 93.193C48.8562 87.5789 53.7286 83.2749 59.538 83.2749C65.3473 83.2749 70.126 87.5789 70.9693 93.193H48.1066ZM115.289 94.7836L129.157 80.8421H124.565L110.698 94.7836L125.409 109.474H130L115.289 94.7836ZM90.2714 80.0936C82.1195 80.0936 75.5606 86.6433 75.5606 94.7836C75.5606 102.924 82.1195 109.474 90.2714 109.474C96.643 109.474 101.984 105.45 104.045 99.8363H100.578C98.7044 103.673 94.769 106.292 90.2714 106.292C84.462 106.292 79.6834 101.988 78.8401 96.3743H104.982V94.7836C104.982 86.6433 98.3296 80.0936 90.2714 80.0936ZM78.8401 93.193C79.5897 87.5789 84.462 83.2749 90.2714 83.2749C96.0808 83.2749 100.859 87.5789 101.703 93.193H78.8401Z" fill="#333333"/>
</svg>
